<svg width="16" height="14" viewBox="0 0 16 14" fill="none" xmlns="http://www.w3.org/2000/svg">
<path d="M8.98761 2.42429V2.18778V0.0118261V0H7.0127V0.0118261V2.18778V2.42429C7.33199 2.40064 7.66312 2.40064 7.99424 2.40064C8.33719 2.40064 8.65648 2.41247 8.98761 2.42429Z" fill="white"/>
<path d="M11.9086 2.87332C11.8968 1.41875 11.8968 0.0351262 11.8968 0.0114746H11.2345H10.9034H9.92188C9.92188 0.0233004 9.92188 1.21771 9.92188 2.50672C10.6314 2.5895 11.2937 2.70776 11.9086 2.87332Z" fill="white"/>
<path d="M12.618 9.1178C12.6061 9.09415 12.6061 9.0705 12.5943 9.04685C12.5588 8.95224 12.5234 8.85764 12.4879 8.7512C12.3814 8.43191 12.2987 8.10079 12.2277 7.78149C12.2041 7.68688 12.1922 7.6041 12.1686 7.50949C11.7428 7.27297 11.0333 6.98915 10.0518 6.81177C10.0636 6.89455 10.0754 6.9655 10.0872 7.04828C10.3238 8.66842 10.915 10.939 12.3814 12.4054C13.363 13.3869 14.581 13.8836 16.0001 13.8836V11.9087C15.4089 11.9205 13.6823 11.9205 12.618 9.1178Z" fill="white"/>
<path d="M6.06681 0.0114746H4.0919C4.0919 0.129733 4.0919 1.46605 4.08008 2.87332C4.69502 2.70776 5.35727 2.57768 6.06681 2.50672C6.06681 1.21771 6.06681 0.0351262 6.06681 0.0114746Z" fill="white"/>
<path d="M3.83157 7.52182C3.80791 7.6046 3.79609 7.69921 3.77244 7.79381C3.67783 8.20772 3.55957 8.63345 3.40584 9.03552C3.39401 9.05917 3.38218 9.09465 3.37036 9.1183C3.09836 9.83968 2.71994 10.5256 2.22325 11.0223C1.62014 11.6254 0.898762 11.921 0 11.921V13.8959C1.4191 13.8959 2.63716 13.3992 3.6187 12.4177C5.0851 10.9513 5.67639 8.68075 5.90108 7.06061C5.91291 6.97783 5.92473 6.89505 5.93656 6.8241C4.96684 6.98966 4.26912 7.27348 3.83157 7.52182Z" fill="white"/>
<path d="M7.0127 6.68135V6.91787V13.8951H8.98761V6.91787V6.68135C8.68014 6.6577 8.34901 6.64587 8.00606 6.64587C7.65129 6.64587 7.32017 6.6577 7.0127 6.68135Z" fill="white"/>
<path d="M13.8491 7.86354H15.8241C15.8241 6.2434 14.2985 4.89526 11.9215 4.18571C11.3066 4.00832 10.6443 3.86641 9.93479 3.7718C9.62732 3.73633 9.30803 3.70085 8.98873 3.6772C8.66943 3.65355 8.33831 3.64172 8.00719 3.64172C7.67606 3.64172 7.34494 3.65355 7.02564 3.6772C6.70635 3.70085 6.38705 3.7245 6.07958 3.7718C5.37003 3.86641 4.69596 3.9965 4.09284 4.18571C1.72768 4.89526 0.202148 6.2434 0.202148 7.86354H2.17706C2.17706 7.36686 2.86296 6.74009 4.05736 6.27888C4.625 6.06602 5.29908 5.8768 6.06775 5.77037C6.37522 5.72307 6.69452 5.68759 7.02564 5.66394C7.34494 5.64029 7.67606 5.62846 8.00719 5.62846C8.35014 5.62846 8.68126 5.64029 8.98873 5.66394C9.31985 5.68759 9.63915 5.72307 9.94662 5.77037C10.7271 5.88863 11.4012 6.06601 11.9688 6.2907C13.1632 6.74008 13.8491 7.36686 13.8491 7.86354Z" fill="white"/>
</svg>
