<svg xmlns="http://www.w3.org/2000/svg" width="34" height="34" fill="none">
<circle cx="17" cy="17" r="17" fill="#3A31A3"/>
<path fill="#fff" d="M29.17 17.207h-2.997c0-6.107-4.968-11.058-11.097-11.058-6.054 0-10.975 4.83-11.095 10.832-.125 6.205 5.717 11.593 11.945 11.593h.783c5.491 0 12.85-4.282 14-9.5.212-.963-.55-1.867-1.539-1.867Zm-18.548.272c0 .817-.67 1.485-1.49 1.485s-1.49-.668-1.49-1.485v-2.402c0-.816.67-1.484 1.49-1.484s1.49.668 1.49 1.484v2.402Zm5.174 0c0 .817-.67 1.485-1.49 1.485s-1.49-.668-1.49-1.485v-2.402c0-.816.67-1.484 1.49-1.484s1.49.668 1.49 1.484v2.402Z"/>
</svg>
